<mxfile host="app.diagrams.net" modified="2021-02-03T22:51:09.142Z" agent="5.0 (Windows NT 10.0; Win64; x64) AppleWebKit/537.36 (KHTML, like Gecko) Chrome/87.0.4280.141 Safari/537.36" etag="Ky4yDd8OMV2DkWhZRGTs" version="14.2.9" type="github">
  <diagram id="C5RBs43oDa-KdzZeNtuy" name="Page-1">
    <mxGraphModel dx="1245" dy="1880" grid="1" gridSize="10" guides="1" tooltips="1" connect="1" arrows="1" fold="1" page="1" pageScale="1" pageWidth="827" pageHeight="1169" math="0" shadow="0">
      <root>
        <mxCell id="WIyWlLk6GJQsqaUBKTNV-0" />
        <mxCell id="WIyWlLk6GJQsqaUBKTNV-1" parent="WIyWlLk6GJQsqaUBKTNV-0" />
        <mxCell id="WssQgZw0Q7mAbEaqDrYe-8" style="edgeStyle=orthogonalEdgeStyle;rounded=0;orthogonalLoop=1;jettySize=auto;html=1;entryX=0;entryY=0.5;entryDx=0;entryDy=0;fontSize=12;exitX=0.75;exitY=1;exitDx=0;exitDy=0;" edge="1" parent="WIyWlLk6GJQsqaUBKTNV-1" source="WssQgZw0Q7mAbEaqDrYe-0" target="WssQgZw0Q7mAbEaqDrYe-3">
          <mxGeometry relative="1" as="geometry">
            <Array as="points">
              <mxPoint x="103" y="610" />
            </Array>
          </mxGeometry>
        </mxCell>
        <mxCell id="WssQgZw0Q7mAbEaqDrYe-22" style="edgeStyle=orthogonalEdgeStyle;rounded=0;orthogonalLoop=1;jettySize=auto;html=1;entryX=0;entryY=0.5;entryDx=0;entryDy=0;fontSize=12;exitX=0.5;exitY=1;exitDx=0;exitDy=0;" edge="1" parent="WIyWlLk6GJQsqaUBKTNV-1" source="WssQgZw0Q7mAbEaqDrYe-0" target="WssQgZw0Q7mAbEaqDrYe-21">
          <mxGeometry relative="1" as="geometry">
            <Array as="points" />
          </mxGeometry>
        </mxCell>
        <mxCell id="WssQgZw0Q7mAbEaqDrYe-27" style="edgeStyle=orthogonalEdgeStyle;rounded=0;orthogonalLoop=1;jettySize=auto;html=1;fontSize=12;exitX=0.75;exitY=0;exitDx=0;exitDy=0;entryX=0;entryY=0.5;entryDx=0;entryDy=0;" edge="1" parent="WIyWlLk6GJQsqaUBKTNV-1" source="WssQgZw0Q7mAbEaqDrYe-0" target="WssQgZw0Q7mAbEaqDrYe-26">
          <mxGeometry relative="1" as="geometry" />
        </mxCell>
        <mxCell id="WssQgZw0Q7mAbEaqDrYe-96" style="edgeStyle=orthogonalEdgeStyle;rounded=0;orthogonalLoop=1;jettySize=auto;html=1;entryX=0;entryY=0.5;entryDx=0;entryDy=0;fontSize=12;" edge="1" parent="WIyWlLk6GJQsqaUBKTNV-1" source="WssQgZw0Q7mAbEaqDrYe-0" target="WssQgZw0Q7mAbEaqDrYe-23">
          <mxGeometry relative="1" as="geometry">
            <Array as="points">
              <mxPoint x="75" y="415" />
            </Array>
          </mxGeometry>
        </mxCell>
        <object label="&lt;b&gt;Tournament&lt;/b&gt;" id="WssQgZw0Q7mAbEaqDrYe-0">
          <mxCell style="html=1;fontSize=12;gradientColor=#ffffff;align=center;" vertex="1" parent="WIyWlLk6GJQsqaUBKTNV-1">
            <mxGeometry x="20" y="550" width="110" height="50" as="geometry" />
          </mxCell>
        </object>
        <object label="&lt;b&gt;Bracket&lt;/b&gt;" id="WssQgZw0Q7mAbEaqDrYe-3">
          <mxCell style="html=1;fontSize=12;gradientColor=#ffffff;align=center;" vertex="1" parent="WIyWlLk6GJQsqaUBKTNV-1">
            <mxGeometry x="210" y="585" width="110" height="50" as="geometry" />
          </mxCell>
        </object>
        <mxCell id="WssQgZw0Q7mAbEaqDrYe-32" style="edgeStyle=orthogonalEdgeStyle;rounded=0;orthogonalLoop=1;jettySize=auto;html=1;entryX=0;entryY=0.5;entryDx=0;entryDy=0;fontSize=12;" edge="1" parent="WIyWlLk6GJQsqaUBKTNV-1" source="WssQgZw0Q7mAbEaqDrYe-4" target="WssQgZw0Q7mAbEaqDrYe-31">
          <mxGeometry relative="1" as="geometry" />
        </mxCell>
        <mxCell id="WssQgZw0Q7mAbEaqDrYe-35" style="edgeStyle=orthogonalEdgeStyle;rounded=0;orthogonalLoop=1;jettySize=auto;html=1;entryX=0;entryY=0.5;entryDx=0;entryDy=0;fontSize=12;" edge="1" parent="WIyWlLk6GJQsqaUBKTNV-1" source="WssQgZw0Q7mAbEaqDrYe-4" target="WssQgZw0Q7mAbEaqDrYe-34">
          <mxGeometry relative="1" as="geometry">
            <Array as="points">
              <mxPoint x="77" y="1185" />
            </Array>
          </mxGeometry>
        </mxCell>
        <mxCell id="WssQgZw0Q7mAbEaqDrYe-36" style="edgeStyle=orthogonalEdgeStyle;rounded=0;orthogonalLoop=1;jettySize=auto;html=1;fontSize=12;entryX=0;entryY=0.5;entryDx=0;entryDy=0;" edge="1" parent="WIyWlLk6GJQsqaUBKTNV-1" source="WssQgZw0Q7mAbEaqDrYe-4" target="WssQgZw0Q7mAbEaqDrYe-33">
          <mxGeometry relative="1" as="geometry">
            <Array as="points">
              <mxPoint x="77" y="995" />
            </Array>
          </mxGeometry>
        </mxCell>
        <object label="&lt;b&gt;Organizer&lt;/b&gt;" id="WssQgZw0Q7mAbEaqDrYe-4">
          <mxCell style="html=1;fontSize=12;gradientColor=#ffffff;align=center;" vertex="1" parent="WIyWlLk6GJQsqaUBKTNV-1">
            <mxGeometry x="22.5" y="1060" width="110" height="50" as="geometry" />
          </mxCell>
        </object>
        <mxCell id="WssQgZw0Q7mAbEaqDrYe-14" style="edgeStyle=orthogonalEdgeStyle;rounded=0;orthogonalLoop=1;jettySize=auto;html=1;entryX=0;entryY=0.5;entryDx=0;entryDy=0;fontSize=12;exitX=0.75;exitY=0;exitDx=0;exitDy=0;" edge="1" parent="WIyWlLk6GJQsqaUBKTNV-1" source="WssQgZw0Q7mAbEaqDrYe-5" target="WssQgZw0Q7mAbEaqDrYe-6">
          <mxGeometry relative="1" as="geometry">
            <Array as="points">
              <mxPoint x="102" y="1325" />
            </Array>
          </mxGeometry>
        </mxCell>
        <mxCell id="WssQgZw0Q7mAbEaqDrYe-16" style="edgeStyle=orthogonalEdgeStyle;rounded=0;orthogonalLoop=1;jettySize=auto;html=1;entryX=0;entryY=0.5;entryDx=0;entryDy=0;fontSize=12;exitX=0.75;exitY=1;exitDx=0;exitDy=0;" edge="1" parent="WIyWlLk6GJQsqaUBKTNV-1" source="WssQgZw0Q7mAbEaqDrYe-5" target="WssQgZw0Q7mAbEaqDrYe-15">
          <mxGeometry relative="1" as="geometry" />
        </mxCell>
        <mxCell id="WssQgZw0Q7mAbEaqDrYe-54" style="edgeStyle=orthogonalEdgeStyle;rounded=0;orthogonalLoop=1;jettySize=auto;html=1;entryX=0;entryY=0.5;entryDx=0;entryDy=0;fontSize=12;exitX=0.5;exitY=1;exitDx=0;exitDy=0;" edge="1" parent="WIyWlLk6GJQsqaUBKTNV-1" source="WssQgZw0Q7mAbEaqDrYe-5" target="WssQgZw0Q7mAbEaqDrYe-52">
          <mxGeometry relative="1" as="geometry" />
        </mxCell>
        <mxCell id="WssQgZw0Q7mAbEaqDrYe-55" style="edgeStyle=orthogonalEdgeStyle;rounded=0;orthogonalLoop=1;jettySize=auto;html=1;entryX=0;entryY=0.5;entryDx=0;entryDy=0;fontSize=12;exitX=0.553;exitY=-0.007;exitDx=0;exitDy=0;exitPerimeter=0;" edge="1" parent="WIyWlLk6GJQsqaUBKTNV-1" source="WssQgZw0Q7mAbEaqDrYe-5" target="WssQgZw0Q7mAbEaqDrYe-53">
          <mxGeometry relative="1" as="geometry" />
        </mxCell>
        <object label="&lt;b&gt;Team&lt;/b&gt;" id="WssQgZw0Q7mAbEaqDrYe-5">
          <mxCell style="html=1;fontSize=12;gradientColor=#ffffff;align=center;" vertex="1" parent="WIyWlLk6GJQsqaUBKTNV-1">
            <mxGeometry x="20" y="1340" width="110" height="50" as="geometry" />
          </mxCell>
        </object>
        <object label="&lt;b&gt;Player&lt;/b&gt;" id="WssQgZw0Q7mAbEaqDrYe-6">
          <mxCell style="html=1;fontSize=12;gradientColor=#ffffff;align=center;" vertex="1" parent="WIyWlLk6GJQsqaUBKTNV-1">
            <mxGeometry x="210" y="1300" width="110" height="50" as="geometry" />
          </mxCell>
        </object>
        <mxCell id="WssQgZw0Q7mAbEaqDrYe-61" style="edgeStyle=orthogonalEdgeStyle;rounded=0;orthogonalLoop=1;jettySize=auto;html=1;fontSize=12;entryX=0;entryY=0.5;entryDx=0;entryDy=0;" edge="1" parent="WIyWlLk6GJQsqaUBKTNV-1" source="WssQgZw0Q7mAbEaqDrYe-7" target="WssQgZw0Q7mAbEaqDrYe-25">
          <mxGeometry relative="1" as="geometry">
            <Array as="points">
              <mxPoint x="65" y="1615" />
            </Array>
          </mxGeometry>
        </mxCell>
        <mxCell id="WssQgZw0Q7mAbEaqDrYe-66" style="edgeStyle=orthogonalEdgeStyle;rounded=0;orthogonalLoop=1;jettySize=auto;html=1;fontSize=12;entryX=0;entryY=0.5;entryDx=0;entryDy=0;exitX=0.75;exitY=0;exitDx=0;exitDy=0;" edge="1" parent="WIyWlLk6GJQsqaUBKTNV-1" source="WssQgZw0Q7mAbEaqDrYe-7" target="WssQgZw0Q7mAbEaqDrYe-68">
          <mxGeometry relative="1" as="geometry">
            <mxPoint x="200" y="1675" as="targetPoint" />
            <Array as="points">
              <mxPoint x="98" y="1685" />
            </Array>
          </mxGeometry>
        </mxCell>
        <mxCell id="WssQgZw0Q7mAbEaqDrYe-71" style="edgeStyle=orthogonalEdgeStyle;rounded=0;orthogonalLoop=1;jettySize=auto;html=1;entryX=0;entryY=0.5;entryDx=0;entryDy=0;fontSize=12;" edge="1" parent="WIyWlLk6GJQsqaUBKTNV-1" source="WssQgZw0Q7mAbEaqDrYe-7" target="WssQgZw0Q7mAbEaqDrYe-67">
          <mxGeometry relative="1" as="geometry" />
        </mxCell>
        <mxCell id="WssQgZw0Q7mAbEaqDrYe-72" style="edgeStyle=orthogonalEdgeStyle;rounded=0;orthogonalLoop=1;jettySize=auto;html=1;entryX=0;entryY=0.5;entryDx=0;entryDy=0;fontSize=12;exitX=0.5;exitY=1;exitDx=0;exitDy=0;" edge="1" parent="WIyWlLk6GJQsqaUBKTNV-1" source="WssQgZw0Q7mAbEaqDrYe-7" target="WssQgZw0Q7mAbEaqDrYe-69">
          <mxGeometry relative="1" as="geometry" />
        </mxCell>
        <mxCell id="WssQgZw0Q7mAbEaqDrYe-73" style="edgeStyle=orthogonalEdgeStyle;rounded=0;orthogonalLoop=1;jettySize=auto;html=1;exitX=0.75;exitY=1;exitDx=0;exitDy=0;entryX=0;entryY=0.5;entryDx=0;entryDy=0;fontSize=12;" edge="1" parent="WIyWlLk6GJQsqaUBKTNV-1" source="WssQgZw0Q7mAbEaqDrYe-7" target="WssQgZw0Q7mAbEaqDrYe-70">
          <mxGeometry relative="1" as="geometry" />
        </mxCell>
        <object label="&lt;b&gt;Match&lt;/b&gt;" id="WssQgZw0Q7mAbEaqDrYe-7">
          <mxCell style="html=1;fontSize=12;gradientColor=#ffffff;align=center;" vertex="1" parent="WIyWlLk6GJQsqaUBKTNV-1">
            <mxGeometry x="15" y="1730" width="110" height="50" as="geometry" />
          </mxCell>
        </object>
        <mxCell id="WssQgZw0Q7mAbEaqDrYe-9" value="Is made up of" style="text;html=1;strokeColor=none;fillColor=none;align=center;verticalAlign=middle;whiteSpace=wrap;rounded=0;fontSize=12;" vertex="1" parent="WIyWlLk6GJQsqaUBKTNV-1">
          <mxGeometry x="130" y="585" width="80" height="20" as="geometry" />
        </mxCell>
        <mxCell id="WssQgZw0Q7mAbEaqDrYe-12" style="edgeStyle=orthogonalEdgeStyle;rounded=0;orthogonalLoop=1;jettySize=auto;html=1;exitX=0.5;exitY=1;exitDx=0;exitDy=0;fontSize=12;" edge="1" parent="WIyWlLk6GJQsqaUBKTNV-1" source="WssQgZw0Q7mAbEaqDrYe-9" target="WssQgZw0Q7mAbEaqDrYe-9">
          <mxGeometry relative="1" as="geometry" />
        </mxCell>
        <object label="&lt;b&gt;Brackets&lt;/b&gt;" id="WssQgZw0Q7mAbEaqDrYe-15">
          <mxCell style="html=1;fontSize=12;gradientColor=#ffffff;align=center;" vertex="1" parent="WIyWlLk6GJQsqaUBKTNV-1">
            <mxGeometry x="210" y="1440" width="110" height="50" as="geometry" />
          </mxCell>
        </object>
        <mxCell id="WssQgZw0Q7mAbEaqDrYe-17" value="Made up of" style="text;html=1;strokeColor=none;fillColor=none;align=center;verticalAlign=middle;whiteSpace=wrap;rounded=0;fontSize=12;" vertex="1" parent="WIyWlLk6GJQsqaUBKTNV-1">
          <mxGeometry x="120" y="1300" width="80" height="20" as="geometry" />
        </mxCell>
        <mxCell id="WssQgZw0Q7mAbEaqDrYe-19" value="Plays in" style="text;html=1;strokeColor=none;fillColor=none;align=center;verticalAlign=middle;whiteSpace=wrap;rounded=0;fontSize=12;" vertex="1" parent="WIyWlLk6GJQsqaUBKTNV-1">
          <mxGeometry x="120" y="1440" width="50" height="20" as="geometry" />
        </mxCell>
        <object label="&lt;b&gt;winner&lt;/b&gt;" id="WssQgZw0Q7mAbEaqDrYe-21">
          <mxCell style="html=1;fontSize=12;gradientColor=#ffffff;align=center;" vertex="1" parent="WIyWlLk6GJQsqaUBKTNV-1">
            <mxGeometry x="210" y="650" width="110" height="50" as="geometry" />
          </mxCell>
        </object>
        <object label="&lt;b&gt;Date&lt;/b&gt;" id="WssQgZw0Q7mAbEaqDrYe-23">
          <mxCell style="html=1;fontSize=12;gradientColor=#ffffff;align=center;" vertex="1" parent="WIyWlLk6GJQsqaUBKTNV-1">
            <mxGeometry x="210" y="390" width="110" height="50" as="geometry" />
          </mxCell>
        </object>
        <object label="&lt;b&gt;Team&lt;/b&gt;" id="WssQgZw0Q7mAbEaqDrYe-25">
          <mxCell style="html=1;fontSize=12;gradientColor=#ffffff;align=center;" vertex="1" parent="WIyWlLk6GJQsqaUBKTNV-1">
            <mxGeometry x="210" y="1590" width="110" height="50" as="geometry" />
          </mxCell>
        </object>
        <object label="&lt;b&gt;Access Code&lt;/b&gt;" id="WssQgZw0Q7mAbEaqDrYe-26">
          <mxCell style="html=1;fontSize=12;gradientColor=#ffffff;align=center;" vertex="1" parent="WIyWlLk6GJQsqaUBKTNV-1">
            <mxGeometry x="210" y="490" width="110" height="50" as="geometry" />
          </mxCell>
        </object>
        <mxCell id="WssQgZw0Q7mAbEaqDrYe-28" value="Has an" style="text;html=1;strokeColor=none;fillColor=none;align=center;verticalAlign=middle;whiteSpace=wrap;rounded=0;fontSize=12;" vertex="1" parent="WIyWlLk6GJQsqaUBKTNV-1">
          <mxGeometry x="127.5" y="490" width="55" height="20" as="geometry" />
        </mxCell>
        <mxCell id="WssQgZw0Q7mAbEaqDrYe-29" value="Has a" style="text;html=1;strokeColor=none;fillColor=none;align=center;verticalAlign=middle;whiteSpace=wrap;rounded=0;fontSize=12;" vertex="1" parent="WIyWlLk6GJQsqaUBKTNV-1">
          <mxGeometry x="130" y="390" width="40" height="20" as="geometry" />
        </mxCell>
        <mxCell id="WssQgZw0Q7mAbEaqDrYe-30" value="Has a" style="text;html=1;strokeColor=none;fillColor=none;align=center;verticalAlign=middle;whiteSpace=wrap;rounded=0;fontSize=12;" vertex="1" parent="WIyWlLk6GJQsqaUBKTNV-1">
          <mxGeometry x="140" y="650" width="40" height="20" as="geometry" />
        </mxCell>
        <object label="&lt;b&gt;Tournament&lt;/b&gt;" id="WssQgZw0Q7mAbEaqDrYe-31">
          <mxCell style="html=1;fontSize=12;gradientColor=#ffffff;align=center;" vertex="1" parent="WIyWlLk6GJQsqaUBKTNV-1">
            <mxGeometry x="210" y="1060" width="110" height="50" as="geometry" />
          </mxCell>
        </object>
        <object label="&lt;b&gt;Sign up&lt;/b&gt;" id="WssQgZw0Q7mAbEaqDrYe-33">
          <mxCell style="html=1;fontSize=12;gradientColor=#ffffff;align=center;" vertex="1" parent="WIyWlLk6GJQsqaUBKTNV-1">
            <mxGeometry x="210" y="970" width="110" height="50" as="geometry" />
          </mxCell>
        </object>
        <object label="&lt;b&gt;Access Code&lt;/b&gt;" id="WssQgZw0Q7mAbEaqDrYe-34">
          <mxCell style="html=1;fontSize=12;gradientColor=#ffffff;align=center;" vertex="1" parent="WIyWlLk6GJQsqaUBKTNV-1">
            <mxGeometry x="210" y="1160" width="110" height="50" as="geometry" />
          </mxCell>
        </object>
        <mxCell id="WssQgZw0Q7mAbEaqDrYe-37" value="Makes" style="text;html=1;strokeColor=none;fillColor=none;align=center;verticalAlign=middle;whiteSpace=wrap;rounded=0;fontSize=12;" vertex="1" parent="WIyWlLk6GJQsqaUBKTNV-1">
          <mxGeometry x="145" y="1060" width="40" height="20" as="geometry" />
        </mxCell>
        <mxCell id="WssQgZw0Q7mAbEaqDrYe-38" value="Creates" style="text;html=1;strokeColor=none;fillColor=none;align=center;verticalAlign=middle;whiteSpace=wrap;rounded=0;fontSize=12;" vertex="1" parent="WIyWlLk6GJQsqaUBKTNV-1">
          <mxGeometry x="110" y="970" width="50" height="20" as="geometry" />
        </mxCell>
        <mxCell id="WssQgZw0Q7mAbEaqDrYe-39" value="Disables / Enables" style="text;html=1;strokeColor=none;fillColor=none;align=center;verticalAlign=middle;whiteSpace=wrap;rounded=0;fontSize=12;" vertex="1" parent="WIyWlLk6GJQsqaUBKTNV-1">
          <mxGeometry x="115" y="1140" width="60" height="40" as="geometry" />
        </mxCell>
        <mxCell id="WssQgZw0Q7mAbEaqDrYe-42" style="edgeStyle=orthogonalEdgeStyle;rounded=0;orthogonalLoop=1;jettySize=auto;html=1;entryX=0;entryY=0.5;entryDx=0;entryDy=0;fontSize=12;exitX=1;exitY=0.5;exitDx=0;exitDy=0;" edge="1" parent="WIyWlLk6GJQsqaUBKTNV-1" source="WssQgZw0Q7mAbEaqDrYe-44" target="WssQgZw0Q7mAbEaqDrYe-45">
          <mxGeometry relative="1" as="geometry">
            <Array as="points">
              <mxPoint x="170" y="825" />
              <mxPoint x="170" y="825" />
            </Array>
          </mxGeometry>
        </mxCell>
        <mxCell id="WssQgZw0Q7mAbEaqDrYe-43" style="edgeStyle=orthogonalEdgeStyle;rounded=0;orthogonalLoop=1;jettySize=auto;html=1;entryX=0;entryY=0.5;entryDx=0;entryDy=0;fontSize=12;exitX=0.5;exitY=1;exitDx=0;exitDy=0;" edge="1" parent="WIyWlLk6GJQsqaUBKTNV-1" source="WssQgZw0Q7mAbEaqDrYe-44" target="WssQgZw0Q7mAbEaqDrYe-46">
          <mxGeometry relative="1" as="geometry" />
        </mxCell>
        <mxCell id="WssQgZw0Q7mAbEaqDrYe-50" style="edgeStyle=orthogonalEdgeStyle;rounded=0;orthogonalLoop=1;jettySize=auto;html=1;entryX=0;entryY=0.5;entryDx=0;entryDy=0;fontSize=12;exitX=0.561;exitY=0.01;exitDx=0;exitDy=0;exitPerimeter=0;" edge="1" parent="WIyWlLk6GJQsqaUBKTNV-1" source="WssQgZw0Q7mAbEaqDrYe-44" target="WssQgZw0Q7mAbEaqDrYe-49">
          <mxGeometry relative="1" as="geometry" />
        </mxCell>
        <object label="&lt;b&gt;Bracket&lt;/b&gt;" id="WssQgZw0Q7mAbEaqDrYe-44">
          <mxCell style="html=1;fontSize=12;gradientColor=#ffffff;align=center;" vertex="1" parent="WIyWlLk6GJQsqaUBKTNV-1">
            <mxGeometry x="22.5" y="800" width="110" height="50" as="geometry" />
          </mxCell>
        </object>
        <object label="&lt;b&gt;Match&lt;/b&gt;" id="WssQgZw0Q7mAbEaqDrYe-45">
          <mxCell style="html=1;fontSize=12;gradientColor=#ffffff;align=center;" vertex="1" parent="WIyWlLk6GJQsqaUBKTNV-1">
            <mxGeometry x="210" y="800" width="110" height="50" as="geometry" />
          </mxCell>
        </object>
        <object label="&lt;b&gt;Tournament&lt;/b&gt;" id="WssQgZw0Q7mAbEaqDrYe-46">
          <mxCell style="html=1;fontSize=12;gradientColor=#ffffff;align=center;" vertex="1" parent="WIyWlLk6GJQsqaUBKTNV-1">
            <mxGeometry x="210" y="890" width="110" height="50" as="geometry" />
          </mxCell>
        </object>
        <mxCell id="WssQgZw0Q7mAbEaqDrYe-47" value="Made up of" style="text;html=1;strokeColor=none;fillColor=none;align=center;verticalAlign=middle;whiteSpace=wrap;rounded=0;fontSize=12;" vertex="1" parent="WIyWlLk6GJQsqaUBKTNV-1">
          <mxGeometry x="130" y="800" width="80" height="20" as="geometry" />
        </mxCell>
        <mxCell id="WssQgZw0Q7mAbEaqDrYe-48" value="Plays in" style="text;html=1;strokeColor=none;fillColor=none;align=center;verticalAlign=middle;whiteSpace=wrap;rounded=0;fontSize=12;" vertex="1" parent="WIyWlLk6GJQsqaUBKTNV-1">
          <mxGeometry x="117.5" y="880" width="50" height="20" as="geometry" />
        </mxCell>
        <object label="&lt;b&gt;Tournament&lt;/b&gt;" id="WssQgZw0Q7mAbEaqDrYe-49">
          <mxCell style="html=1;fontSize=12;gradientColor=#ffffff;align=center;" vertex="1" parent="WIyWlLk6GJQsqaUBKTNV-1">
            <mxGeometry x="210" y="720" width="110" height="50" as="geometry" />
          </mxCell>
        </object>
        <mxCell id="WssQgZw0Q7mAbEaqDrYe-51" value="Is in" style="text;html=1;strokeColor=none;fillColor=none;align=center;verticalAlign=middle;whiteSpace=wrap;rounded=0;fontSize=12;" vertex="1" parent="WIyWlLk6GJQsqaUBKTNV-1">
          <mxGeometry x="105" y="720" width="80" height="20" as="geometry" />
        </mxCell>
        <object label="&lt;b&gt;Tournament&lt;/b&gt;" id="WssQgZw0Q7mAbEaqDrYe-52">
          <mxCell style="html=1;fontSize=12;gradientColor=#ffffff;align=center;" vertex="1" parent="WIyWlLk6GJQsqaUBKTNV-1">
            <mxGeometry x="210" y="1520" width="110" height="50" as="geometry" />
          </mxCell>
        </object>
        <object label="&lt;b&gt;match&lt;/b&gt;" id="WssQgZw0Q7mAbEaqDrYe-53">
          <mxCell style="html=1;fontSize=12;gradientColor=#ffffff;align=center;" vertex="1" parent="WIyWlLk6GJQsqaUBKTNV-1">
            <mxGeometry x="210" y="1220" width="110" height="50" as="geometry" />
          </mxCell>
        </object>
        <mxCell id="WssQgZw0Q7mAbEaqDrYe-58" value="plays in" style="text;html=1;strokeColor=none;fillColor=none;align=center;verticalAlign=middle;whiteSpace=wrap;rounded=0;fontSize=12;" vertex="1" parent="WIyWlLk6GJQsqaUBKTNV-1">
          <mxGeometry x="117.5" y="1220" width="60" height="20" as="geometry" />
        </mxCell>
        <mxCell id="WssQgZw0Q7mAbEaqDrYe-59" value="plays in" style="text;html=1;strokeColor=none;fillColor=none;align=center;verticalAlign=middle;whiteSpace=wrap;rounded=0;fontSize=12;" vertex="1" parent="WIyWlLk6GJQsqaUBKTNV-1">
          <mxGeometry x="110" y="1520" width="50" height="20" as="geometry" />
        </mxCell>
        <mxCell id="WssQgZw0Q7mAbEaqDrYe-62" value="Has a" style="text;html=1;strokeColor=none;fillColor=none;align=center;verticalAlign=middle;whiteSpace=wrap;rounded=0;fontSize=12;" vertex="1" parent="WIyWlLk6GJQsqaUBKTNV-1">
          <mxGeometry x="110" y="1590" width="40" height="20" as="geometry" />
        </mxCell>
        <object label="&lt;b&gt;Tournament&lt;/b&gt;" id="WssQgZw0Q7mAbEaqDrYe-67">
          <mxCell style="html=1;fontSize=12;gradientColor=#ffffff;align=center;" vertex="1" parent="WIyWlLk6GJQsqaUBKTNV-1">
            <mxGeometry x="210" y="1730" width="110" height="50" as="geometry" />
          </mxCell>
        </object>
        <object label="&lt;b&gt;Bracket&lt;/b&gt;" id="WssQgZw0Q7mAbEaqDrYe-68">
          <mxCell style="html=1;fontSize=12;gradientColor=#ffffff;align=center;" vertex="1" parent="WIyWlLk6GJQsqaUBKTNV-1">
            <mxGeometry x="210" y="1660" width="110" height="50" as="geometry" />
          </mxCell>
        </object>
        <object label="&lt;b&gt;Winner&lt;/b&gt;" id="WssQgZw0Q7mAbEaqDrYe-69">
          <mxCell style="html=1;fontSize=12;gradientColor=#ffffff;align=center;" vertex="1" parent="WIyWlLk6GJQsqaUBKTNV-1">
            <mxGeometry x="210" y="1870" width="110" height="50" as="geometry" />
          </mxCell>
        </object>
        <object label="&lt;b&gt;Player&lt;/b&gt;" id="WssQgZw0Q7mAbEaqDrYe-70">
          <mxCell style="html=1;fontSize=12;gradientColor=#ffffff;align=center;" vertex="1" parent="WIyWlLk6GJQsqaUBKTNV-1">
            <mxGeometry x="210" y="1800" width="110" height="50" as="geometry" />
          </mxCell>
        </object>
        <mxCell id="WssQgZw0Q7mAbEaqDrYe-74" value="Has a" style="text;html=1;strokeColor=none;fillColor=none;align=center;verticalAlign=middle;whiteSpace=wrap;rounded=0;fontSize=12;" vertex="1" parent="WIyWlLk6GJQsqaUBKTNV-1">
          <mxGeometry x="100" y="1870" width="40" height="20" as="geometry" />
        </mxCell>
        <mxCell id="WssQgZw0Q7mAbEaqDrYe-75" value="Has a" style="text;html=1;strokeColor=none;fillColor=none;align=center;verticalAlign=middle;whiteSpace=wrap;rounded=0;fontSize=12;" vertex="1" parent="WIyWlLk6GJQsqaUBKTNV-1">
          <mxGeometry x="130" y="1800" width="40" height="20" as="geometry" />
        </mxCell>
        <mxCell id="WssQgZw0Q7mAbEaqDrYe-79" value="In a" style="text;html=1;strokeColor=none;fillColor=none;align=center;verticalAlign=middle;whiteSpace=wrap;rounded=0;fontSize=12;" vertex="1" parent="WIyWlLk6GJQsqaUBKTNV-1">
          <mxGeometry x="160" y="1730" width="40" height="20" as="geometry" />
        </mxCell>
        <mxCell id="WssQgZw0Q7mAbEaqDrYe-81" value="In a" style="text;html=1;strokeColor=none;fillColor=none;align=center;verticalAlign=middle;whiteSpace=wrap;rounded=0;fontSize=12;" vertex="1" parent="WIyWlLk6GJQsqaUBKTNV-1">
          <mxGeometry x="135" y="1660" width="40" height="20" as="geometry" />
        </mxCell>
      </root>
    </mxGraphModel>
  </diagram>
</mxfile>
